<svg xmlns="http://www.w3.org/2000/svg" viewBox="0 0 13.192256 12.945555" height="48.928" width="49.86"><path d="M9.6 6.891h1.353v1.424H9.6V6.89m0-2.777h1.354v1.354H9.6V4.114m-2.5 0h1.39v1.354H7.1V4.114m0 2.777h1.39v1.424H7.1V6.89m2.5 2.813h1.354v1.423H9.6V9.704m-2.5 0h1.39v1.423H7.1V9.704m-2.534 0H5.99v1.423H4.565V9.704m0-2.813h1.424v1.424H4.565V6.89m0-2.777h1.424v1.354H4.565V4.114m-2.5 5.59h1.389v1.423H2.065V9.704m0-2.813h1.389v1.424H2.065V6.89m0-2.777h1.389v1.354H2.1l-.035-1.354M8.245.26v1.389h1.39V.259m-6.181 0v1.39h1.493V.259M.26 2.552h12.673M.26.26h12.673v12.43H.26V.26" fill="none" stroke="#c3c3c3" stroke-width=".512" stroke-linecap="round" stroke-linejoin="round"/></svg>