<svg xmlns="http://www.w3.org/2000/svg" viewBox="0 0 50 50" height="50" width="50"><path d="M49.17 25.254a24.086 23.324 0 0 1-24.085 23.324A24.086 23.324 0 0 1 .999 25.254 24.086 23.324 0 0 1 25.085 1.931 24.086 23.324 0 0 1 49.17 25.254zm-20.216-9.312a3.869 3.598 0 0 1-3.87 3.598 3.869 3.598 0 0 1-3.868-3.598 3.869 3.598 0 0 1 3.869-3.598 3.869 3.598 0 0 1 3.869 3.598zm-4.013 8.96v12.84" fill="none" stroke="#000" stroke-width="2.097" stroke-linecap="round" stroke-linejoin="round" paint-order="stroke fill markers"/></svg>