<svg viewBox="0 0 300 200" xmlns="http://www.w3.org/2000/svg" clip-rule="evenodd" fill-rule="evenodd" image-rendering="optimizeQuality" shape-rendering="geometricPrecision" text-rendering="geometricPrecision"><defs><style>.str0{stroke:#000;stroke-width:9.37566;stroke-linecap:round;stroke-linejoin:round}.fil0{fill:none}.fil1{fill:#000;fill-rule:nonzero}</style></defs><circle class="fil0 str0" cx="44" cy="163" r="28"/><circle class="fil0 str0" cx="116" cy="163" r="28"/><circle class="fil0 str0" cx="238" cy="163" r="28"/><path class="fil0 str0" d="M72 159h15m60 0h62M169 12h34l63 25 28 60v62h-29m-62-28V12"/><path class="fil0 str0" d="M272 53h-34v81m53-34h-53M6 134h232"/><path class="fil1" d="M72 33H19v78h56v-9H31V74h38v-6H31V43h41zm19 0v78h9V46l25 65h9l25-65v65h10V33h-16l-25 66-25-66z"/></svg>