<svg xmlns="http://www.w3.org/2000/svg" viewBox="0 0 14.861274 13.123806" height="49.602" width="56.169"><path d="M10.05 4.931v1.467M8.026 4.767V3.355h3.088v1.453M7.459 6.453l.028-1.632h5.254v1.55m-2.121 5.006s.36 1.482 1.606 1.482c1.375 0 1.522-1.462 1.522-1.462m-6.257-.04s.36 1.482 1.607 1.482c1.374 0 1.522-1.462 1.522-1.462m-6.257-.04s.36 1.482 1.606 1.482c1.374 0 1.522-1.462 1.522-1.462m-6.257-.04s.36 1.482 1.607 1.482c1.374 0 1.522-1.462 1.522-1.462M2.436 5.181h.66m-.66-1.267h.66m-.33-1.082V.268M1.715 6.357V2.892h2.103v3.485m-3.553.236h14.332c-.073 1.36-.452 2.478-1.105 3.683H1.312C.552 9.077.318 8.088.266 6.613z" fill="none" stroke="#5d82aa" stroke-width=".529" stroke-linecap="round" stroke-linejoin="round"/></svg>