<svg xmlns="http://www.w3.org/2000/svg" viewBox="0 0 12.127073 13.149333" height="49.698" width="45.835"><path d="M3.169.976a.712.712 0 0 1-.712.712.712.712 0 0 1-.711-.712.712.712 0 0 1 .711-.711.712.712 0 0 1 .712.711zm2.731 2a.539.52 0 0 1-.538.52.539.52 0 0 1-.539-.52.539.52 0 0 1 .539-.519.539.52 0 0 1 .538.52zM10.016.939L7.766 2.63 6.554 6.496m-3.52.212h6.059m-.98 6.174c-1.14-1.045-3.085-1.053-4.097 0m2.045-.789V8.631M.265 5.092h11.598L6.093 8.67z" fill="none" stroke="#5d82aa" stroke-width=".529" stroke-linecap="round" stroke-linejoin="round" paint-order="stroke fill markers"/></svg>