<svg xmlns="http://www.w3.org/2000/svg" viewBox="0 0 13.414209 13.225352" height="49.986" width="50.699"><path d="M3.768 2.215s.369.036.38.417m.649.05a1.164 1.164 0 1 1-2.329 0 1.164 1.164 0 0 1 2.329 0zm2.945-1.9a.517.517 0 1 1-1.035 0 .517.517 0 0 1 1.035 0zm.279 2.597a.652.652 0 0 1-.657.647.652.652 0 0 1-.657-.647c0-.357.294-.647.657-.647.363 0 .657.29.657.647zm.437 2.353s.1-.94.975-.95c1.145-.02 1.155.945 1.155.945m.376 4.642c.001.848-.04 3.112 1.505 2.488.414-.167.47-.73.325-1.08-.268-.591-.887-.24-.887-.24M6.68 5.831h6.289c-.443.808-.18 1.964-.232 2.873-.054.95-.437 1.637-1.551 1.637-1.545.057-2.001-.828-4.478-.803m-4.257.831c0 .848.04 3.112-1.504 2.488-.414-.167-.47-.73-.325-1.08.267-.591.886-.24.886-.24m5.228-5.706H.447c.443.808.179 1.964.231 2.873.055.95.438 1.637 1.551 1.637 1.545.057 2.001-.828 4.478-.803" fill="none" stroke="#5d82aa" stroke-width=".529" stroke-linecap="round"/></svg>