<svg xmlns="http://www.w3.org/2000/svg" viewBox="0 0 11.485746 13.215531" height="49.948" width="43.411"><path d="M5.473.267s-.79.501-.557.923c.297.538.77.747.136 1.412M6.606.267s-.79.501-.557.923c.297.538.77.747.136 1.412m5.036.871a5.478 4.595 0 0 1-2.739 3.98 5.478 4.595 0 0 1-5.478 0 5.478 4.595 0 0 1-2.74-3.98h5.479zM3.472 8.425h4.541m-4.386.798h4.237v.883H3.627v-.883M3.9 11.92a1.575 1.032 0 0 1-1.575 1.032A1.575 1.032 0 0 1 .75 11.919a1.575 1.032 0 0 1 1.575-1.032A1.575 1.032 0 0 1 3.9 11.919zm-.04-.054h6.871" fill="none" stroke="#5d82aa" stroke-width=".529" stroke-linecap="round" stroke-linejoin="round"/></svg>