<svg xmlns="http://www.w3.org/2000/svg" width="52.099" height="50.098" viewBox="0 0 13.784649 13.255127"><path d="M10.89 2.233v1.956M.315 2.233l-.05 9.042c.998 1.084 2.32 1.716 3.496 1.716l9.758-.086v-8.72l-7.918.016m2.695-1.847c0 .447-1.184.81-2.645.81-1.46 0-2.645-.363-2.645-.81 0-.447 1.185-.81 2.645-.81 1.461 0 2.645.363 2.645.81zm2.59-.121c0 1.087-2.366 1.968-5.285 1.968C2.682 4.2.316 3.32.316 2.233S2.682.265 5.602.265c2.919 0 5.286.88 5.286 1.968z" fill="none" stroke="#fff100" stroke-width=".529"/></svg>