<svg xmlns="http://www.w3.org/2000/svg" viewBox="0 0 16.276867 14.543784" height="54.969" width="61.519"><path d="M16.076 2.268h-2.234l-.768 9.277H1.12m4.34-7.948l1.588 1.499 1.843-2.8m4.781 1.336h-2.865m-7.163 0H.198l.75 5.799 12.194.955m-2.517-6.71a3.477 3.477 0 1 1-6.954 0 3.477 3.477 0 0 1 6.954 0zM4.14 13.254a1.09 1.09 0 1 1-2.182 0 1.09 1.09 0 0 1 2.182 0zm7.862 0a1.09 1.09 0 1 1-2.181 0 1.09 1.09 0 0 1 2.181 0z" fill="none" stroke="red" stroke-width=".397" stroke-linecap="round" stroke-linejoin="round" paint-order="stroke fill markers"/></svg>