<svg xmlns="http://www.w3.org/2000/svg" viewBox="0 0 16.276868 14.543778" height="54.969" width="61.519"><path d="M12.002 13.255a1.09 1.09 0 0 1-1.09 1.09 1.09 1.09 0 0 1-1.091-1.09 1.09 1.09 0 0 1 1.09-1.091 1.09 1.09 0 0 1 1.091 1.09zm-7.862 0a1.09 1.09 0 0 1-1.09 1.09 1.09 1.09 0 0 1-1.091-1.09 1.09 1.09 0 0 1 1.09-1.091 1.09 1.09 0 0 1 1.091 1.09zm6.485-9.58a3.477 3.477 0 0 1-3.477 3.477A3.477 3.477 0 0 1 3.67 3.675 3.477 3.477 0 0 1 7.148.198a3.477 3.477 0 0 1 3.477 3.477zM5.127 3.48h4.059m-2.03-2.03v4.06M3.643 3.631H.198l.75 5.799 12.194.955m.529-6.754h-2.865m5.27-1.364h-2.234l-.768 9.277H1.12" fill="none" stroke="red" stroke-width=".397" stroke-linecap="round" stroke-linejoin="round" paint-order="stroke fill markers"/></svg>