<svg xmlns="http://www.w3.org/2000/svg" viewBox="0 0 9.7895831 6.3499992" height="24" width="37"><path d="M5.426 4.327H8.56m-7.343 0H4.35M2.936 1.97h.98m-1.04-.72v1.854m-1.57-.72h1.57m-1.493-1.14h2.404a.16.16 0 0 1 .16.161v1.532a.16.16 0 0 1-.16.161H1.383a.16.16 0 0 1-.161-.161V1.405a.16.16 0 0 1 .161-.161zM.661.132h8.467c.293 0 .53.236.53.53v5.027a.529.529 0 0 1-.53.529H.661a.528.528 0 0 1-.529-.53V.662c0-.293.236-.529.53-.529z" fill="none" stroke="#8023ff" stroke-width=".265" stroke-linecap="round" stroke-linejoin="round"/></svg>