<svg xmlns="http://www.w3.org/2000/svg" viewBox="0 0 13.804001 14.540328" height="54.956" width="52.173"><path d="M1.17 7.645l-.73 4.826 2.274.008s.33 1.503 3.305 1.797c2.976.294 4.588.017 4.588.017l2.526-1.618s.047-.488.14-.792a3.18 3.18 0 0 0 .328-1.215S13.32 9.66 12.56 9.39c-.76-.27-3.942-.152-3.942-.152L7 9.696l-.296-2.05s.938-.044.932-.485c-.006-.44-.955-.353-.968-.612-.022-.476.912-.367.919-.82.006-.386-.955-.282-.955-.637 0-.355 1.056-.437 1.056-.88 0-.442-1.842-.853-1.842-.853v-.95h-3.82v.95s-1.775.34-1.775.82c0 .48 1.078.468 1.078.803 0 .425-1.04.278-1.04.704 0 .613.93.333.918.765-.01.368-.987.302-.96.697.023.348.922.497.922.497zM2.772.167h2.33v1.505h-2.33z" fill="#637bca" stroke-width=".274"/><path d="M4.015 10.369c.99.357 6.56.062 6.076 1.445-.827.104-3.882-.31-5.071-.097-2.119.379-1.943 1.016 3.371 1.271.17-.012 1.492.051 2.033-.149.54-.2 2.844-1.135 2.844-1.135m-.134.971c-.05.233-2.526 1.618-2.526 1.618-1.192-.01-8.293.653-7.979-2.627.132-1.048 1.04-1.264 1.386-1.297.346-.033 4.603-1.131 4.603-1.131s3.06 0 3.47.066c.412.067.758.283.906.416.148.133.526.615.608.948.042.631-.334 1.036-.361 1.43zM5.82 9.847l-.637-1.88H2.691l-.806 3.041h.899M6.98 9.527l-.275-1.88s.89-.18.89-.492c0-.406-.939-.335-.939-.687 0-.345.919-.383.919-.747 0-.418-1-.467-1-.693 0-.198 1.1-.468 1.1-.817 0-.415-1.828-.851-1.828-.851v-.95h-3.82v.95s-1.829.436-1.829.85c0 .35 1.101.62 1.101.818 0 .226-1 .275-1 .693 0 .364.92.402.92.747 0 .352-.94.281-.94.687 0 .312.89.491.89.491l-.728 4.826 2.274.008M2.772.201h2.33v1.505h-2.33V.201" fill="none" stroke="#000" stroke-width=".397" stroke-linecap="round" stroke-linejoin="round"/></svg>