<svg xmlns="http://www.w3.org/2000/svg" viewBox="0 0 8.9518627 14.512918" height="54.852" width="33.834"><path d="M.717 1.34S-.66 6 .759 9.786c-.03.888-.006 1.608-.006 1.608s-.402.17-.402.608c0 .352 1.275.924 2.432 1.036a30.304 30.304 0 0 0 2.207 1.339l-1.01-1.356s2.488.072 3.675-.306c2.022-.645.705-1.317.705-1.317L8.357 1.124c.107-.277-.975-1.035-3.765-1C1.802.16.594.657.717 1.34z"/><path d="M.756 1.124c.773 1.617 2.357 3.09 4.36 3.66 0 0-3.807 6.121-.164 9.53C-.595 11.7-.17 5.495.756 1.125zM.76 9.715v1.925M4.557.198c2.099 0 3.8.415 3.8.926 0 .51-1.701.925-3.8.925-2.1 0-3.8-.415-3.8-.925 0-.511 1.7-.926 3.8-.926m0 .688c.539 0 .976.106.976.238 0 .13-.437.237-.976.237-.54 0-.976-.106-.977-.237 0-.132.438-.238.977-.238M2.895 12.969C1.618 12.891.36 12.3.36 11.884c0-.157.182-.353.393-.49m7.607.004c.226.14.393.322.393.486 0 .634-1.878 1.147-4.196 1.147-.196 0-.388-.004-.577-.01m-1.77-.642c-.75-.083-1.45-.541-1.45-.762m7.594 0c0 .51-1.7.925-3.797.925-.265 0-.524-.006-.773-.02m4.569-.91V1.18"/></svg>