<svg xmlns="http://www.w3.org/2000/svg" viewBox="0 0 9.9140496 5.1183035" height="19.345" width="37.47"><path d="M.734 4.275l1.353.05m5.624-.048l1.369-.103M7.697.774l1.413-.1M.721.7L1.92.767M.163.134S.306 1.735.3 2.537C.292 3.291.132 4.792.132 4.792s2.992.19 4.49.194c1.72.005 5.155-.194 5.155-.194S9.565 3.18 9.568 2.37c.004-.748.214-2.235.214-2.235S6.565.353 4.954.352C3.356.352.164.134.164.134m5.288 2.072s-.02-.473-.5-.504c-.262-.017-.558.151-.558.468 0 .268.18.493.578.558.16.026.489.088.494.53.005.431-.32.528-.501.528-.244 0-.667-.092-.657-.619m.622-1.465v-.404m0 2.881v-.403" fill="none" stroke="#8023ff" stroke-width=".265" stroke-linecap="round" stroke-linejoin="round"/></svg>