<svg xmlns="http://www.w3.org/2000/svg" viewBox="0 0 8.0240241 8.0937055" height="30.59" width="30.327"><path d="M6.889 5.83l.94.942m-2.047.132l.941.941M6.75 6.82L7.93 8M5.146 5.216l1.223 1.223M4.433 3.025l1.613-.55.376.376-1.284.873M2.681 1.24L5.87.152l.744.744L4.076 2.62m-2.838.106L.152 5.916l.744.744L2.62 4.12m1.104 1.062L2.85 6.467l-.376-.376.55-1.614M1.285.317A1.016 1.016 0 0 0 .27 1.333a1.016 1.016 0 0 0 .507.878l4.486 4.404 1.391-1.391L2.153.806a1.016 1.016 0 0 0-.867-.489z" fill="none" stroke="#8023ff" stroke-width=".265"/></svg>