<svg xmlns="http://www.w3.org/2000/svg" viewBox="0 0 20.751314 13.099214" height="49.509" width="78.43"><path d="M6.606 7.664L6.58 1.816H7.8l1.577 3.3 1.546-3.3h1.19v5.848m-6.959-5.85l-3.97.018-.005 5.7H5.17M1.273 4.254h3.735m-4.74 4.58h16.287m3.721-2.388h-3.72m2.386-3.3h-2.387v5.687M11.711.268h2.387l4.423 1.755 1.966 4.213v4.352l-1.83.019m-4.559-1.985V.268m-3.931 10.32h4.353m-9.618 0h1.053m12.566.281a1.966 1.966 0 1 1-3.931 0 1.966 1.966 0 0 1 3.931 0zm-8.565 0a1.966 1.966 0 1 1-3.931 0 1.966 1.966 0 0 1 3.931 0zm-5.054 0a1.966 1.966 0 1 1-3.932 0 1.966 1.966 0 0 1 3.932 0z" clip-rule="evenodd" fill="none" fill-rule="evenodd" stroke="#fe0000" stroke-width=".729" stroke-linecap="round" stroke-linejoin="round" image-rendering="optimizeQuality" shape-rendering="geometricPrecision" text-rendering="geometricPrecision"/></svg>