<svg xmlns="http://www.w3.org/2000/svg" viewBox="0 0 13.283806 13.283796" height="50.206" width="50.207"><path d="M6.626 9.837v.711m.006-7.918v.712m1.543 1.694s.05-1.194-.81-1.518c-.797-.3-1.552-.184-2.03.505-.372.534-.425 1.788.161 2.244.654.509 1.452.141 2.297.82.63.505.465 1.603.119 2.034-.837 1.041-2.488.935-2.924-.424-.101-.356-.067-.644-.067-.644m-1.697 3.932l.822-.834m6.046-8.43l.817-.756m.917 4.677a5.184 5.184 0 1 1-10.368 0 5.184 5.184 0 0 1 10.368 0zm1.193 0a6.377 6.377 0 1 1-12.754 0 6.377 6.377 0 0 1 12.754 0z" fill="#c8ffce" stroke="#5d81aa" stroke-width=".529" stroke-linecap="round" stroke-linejoin="round"/></svg>