<svg xmlns="http://www.w3.org/2000/svg" viewBox="0 0 13.283796 13.283796" height="50.206" width="50.206"><path d="M4.176 7.098H6.87M4.224 6.037h2.694M8.55 4.663s.176-1.402-.587-1.414c-.839-.013-2.517.024-2.517.024s-.425.083-.425.736v5.256c0 .541.201.616.497.623.48.012 1.842 0 2.421 0 .579 0 .546-.69.551-1.366m-5.266 3.463l.775-.807m6.08-8.457l.818-.786m.929 4.707a5.184 5.184 0 1 1-10.368 0 5.184 5.184 0 0 1 10.368 0zm1.193 0a6.377 6.377 0 1 1-12.754 0 6.377 6.377 0 0 1 12.754 0z" fill="#fffab2" stroke="#5d81aa" stroke-width=".529" stroke-linecap="round" stroke-linejoin="round"/></svg>