<svg xmlns="http://www.w3.org/2000/svg" viewBox="0 0 20.947985 13.163797" height="49.753" width="79.173"><path d="M18.31 2.566a1.971 2.295 0 0 0-.986-1.988 1.971 2.295 0 0 0-1.972 0 1.971 2.295 0 0 0-.986 1.988h1.972zm-3.913 0a1.971 2.295 0 0 0-.985-1.988 1.971 2.295 0 0 0-1.972 0 1.971 2.295 0 0 0-.985 1.988h1.97zm-3.904-.01A1.971 2.295 0 0 0 9.508.57a1.971 2.295 0 0 0-1.972 0 1.971 2.295 0 0 0-.985 1.988h1.971zm-3.912 0A1.971 2.295 0 0 0 5.596.57a1.971 2.295 0 0 0-1.972 0 1.971 2.295 0 0 0-.985 1.988H4.61zm7.452 5.802h3.747v1.79h-3.775zM2.489 10.259h3.03M2.545 8.275h7.549m4.133-3.554h3.747M2.406 4.694h3.802M2.594 2.55h15.76c1.29 0 2.33 1.04 2.33 2.33v5.69c0 1.29-1.04 2.33-2.33 2.33H2.594c-1.29 0-2.33-1.04-2.33-2.33V4.88c0-1.29 1.04-2.33 2.33-2.33z" fill="none" stroke="#5e81aa" stroke-width=".669" stroke-linecap="round" stroke-linejoin="round" paint-order="stroke fill markers"/></svg>