<svg xmlns="http://www.w3.org/2000/svg" viewBox="0 0 15.175046 13.212618" height="49.937" width="57.355"><path d="M12.124 7.406l-.718-.746m-2.12.567l.532-.567m2.368-2.615l-.715.815m-2.433-.815l.78.877m1.956.734a1.117 1.117 0 1 1-2.234 0 1.117 1.117 0 0 1 2.234 0zm1.174 0a2.291 2.291 0 1 1-4.582 0 2.291 2.291 0 0 1 4.582 0zm-2.257 5.716h1.901v1.576h-1.901zm-8.108 0h1.901v1.576H2.583zm2.13-5.13h1.295m-1.296-.874h1.296M1.404 7.215v2.04m0-6.312v2.04M1.793.264h11.59c.846 0 1.527.681 1.527 1.528v8c0 .847-.681 1.529-1.528 1.529H1.792A1.525 1.525 0 0 1 .266 9.794V1.793A1.523 1.523 0 0 1 1.793.265z" fill="none" stroke="#5e81aa" stroke-width=".529" stroke-linecap="round"/></svg>