<svg xmlns="http://www.w3.org/2000/svg" viewBox="0 0 21.120432 13.436732" height="50.784" width="79.825"><path d="M9.314 8.55s-.302 2.154 1.235 2.154c1.536 0 1.263-2.154 1.263-2.154M8.6 8.485h3.92m.118-2.225s-.086-1.709 1.378-1.709c1.572 0 1.544 1.709 1.544 1.709m-9.998 0S5.476 4.55 6.94 4.55c1.573 0 1.544 1.709 1.544 1.709m10.094 6.78s.019-4.014-.022-7.025c-.04-3.011-2.641-5.703-4.904-5.743-2.192.038-4.664-.028-6.429 0C4.96.312 2.36 3.004 2.32 6.015c-.04 3.01-.022 7.026-.022 7.026m-2.029.131h20.584" fill="none" stroke="#5d81aa" stroke-width=".759" stroke-linecap="round" stroke-linejoin="round"/></svg>