<svg xmlns="http://www.w3.org/2000/svg" viewBox="0 0 13.04477 13.608145" height="51.432" width="49.303"><path d="M6.553 2.113L5.717 3.33m-.835-1.218l.835 1.218m0-3.063V3.33m3.65 9.298a.714.714 0 1 1-1.428 0 .714.714 0 0 1 1.428 0zm-6.118 0a.714.714 0 1 1-1.428 0 .714.714 0 0 1 1.428 0zM.983 11.107h9.342v-.617M.708 8.036h9.866M.45 6.578h10.253M9.131 4.98l.06 4.53m-1.8-4.53l.06 4.53M5.717 4.98l.061 4.53M3.944 4.98l.061 4.53M2.257 4.98l.06 4.53m10.46-5.349h-1.838l-.036.787M.265 4.919l.572 4.69h9.666l.4-4.661z" fill="none" stroke="#5d81aa" stroke-width=".529" stroke-linecap="round" stroke-linejoin="round"/></svg>