<svg xmlns="http://www.w3.org/2000/svg" viewBox="0 0 13.203919 13.529076" height="51.134" width="49.905"><path d="M3.341 7.476l3.289.059 2.64-2.596m-2.668 6.074v.947m0-8.807V4.1m2.515 8.003l1.159 1.159m-6.189-1.16l-1.159 1.16m9.686-9.28s1.133-2.235-.829-3.367c-1.962-1.133-3.282.795-3.282.795zm-12.024 0S-.543 1.747 1.419.615C3.38-.518 4.7 1.41 4.7 1.41zm11.177 3.555a5.165 5.165 0 1 1-10.33 0 5.165 5.165 0 0 1 10.33 0z" fill="none" stroke="#5d81aa" stroke-width=".529" stroke-linecap="round" stroke-linejoin="round"/></svg>