<svg xmlns="http://www.w3.org/2000/svg" viewBox="0 0 14.360362 13.441012" height="50.801" width="54.275"><path d="M10.377 10.442a.802.802 0 0 1-.886.709.802.802 0 0 1-.709-.887.802.802 0 0 1 .887-.708.802.802 0 0 1 .708.886zM9.323 7.453a.604.604 0 0 0-.667.534.604.604 0 0 0 .036.283 2.268 2.268 0 0 0-.476.273.604.604 0 0 0-.41-.23.604.604 0 0 0-.667.534.604.604 0 0 0 .355.619 2.268 2.268 0 0 0-.165.618.604.604 0 0 0-.01-.002.604.604 0 0 0-.668.533.604.604 0 0 0 .534.668.604.604 0 0 0 .309-.048 2.268 2.268 0 0 0 .294.508.604.604 0 0 0-.233.413.604.604 0 0 0 .533.668.604.604 0 0 0 .628-.376 2.268 2.268 0 0 0 .549.148.604.604 0 0 0 .535.643.604.604 0 0 0 .668-.534.604.604 0 0 0-.028-.256 2.268 2.268 0 0 0 .536-.31.604.604 0 0 0 .391.209.604.604 0 0 0 .668-.534.604.604 0 0 0-.353-.618 2.268 2.268 0 0 0 .141-.528.604.604 0 0 0 .652-.535.604.604 0 0 0-.534-.667.604.604 0 0 0-.264.03 2.268 2.268 0 0 0-.316-.545.604.604 0 0 0 .194-.379.604.604 0 0 0-.534-.667.604.604 0 0 0-.612.34 2.268 2.268 0 0 0-.55-.141.604.604 0 0 0-.536-.65zm2.37-3.66a.928.928 0 0 1-1.115.694.928.928 0 0 1-.694-1.115A.928.928 0 0 1 11 2.68a.928.928 0 0 1 .693 1.114zM10.886.217a.7.7 0 0 0-.839.522.7.7 0 0 0 .003.33 2.623 2.623 0 0 0-.583.249.7.7 0 0 0-.44-.32.7.7 0 0 0-.84.522.7.7 0 0 0 .324.76 2.623 2.623 0 0 0-.273.687.7.7 0 0 0-.011-.004.7.7 0 0 0-.84.523.7.7 0 0 0 .522.84.7.7 0 0 0 .362-.014 2.623 2.623 0 0 0 .27.624.7.7 0 0 0-.325.443.7.7 0 0 0 .522.839.7.7 0 0 0 .772-.347 2.623 2.623 0 0 0 .61.246.7.7 0 0 0 .528.81.7.7 0 0 0 .84-.522.7.7 0 0 0 .002-.298 2.623 2.623 0 0 0 .658-.282.7.7 0 0 0 .422.292.7.7 0 0 0 .84-.522.7.7 0 0 0-.322-.758 2.623 2.623 0 0 0 .234-.588.7.7 0 0 0 .82-.526.7.7 0 0 0-.522-.84.7.7 0 0 0-.307 0 2.623 2.623 0 0 0-.289-.669.7.7 0 0 0 .274-.409.7.7 0 0 0-.522-.84.7.7 0 0 0-.75.31 2.623 2.623 0 0 0-.614-.239.7.7 0 0 0-.526-.82zM4.665 6.244a.973.973 0 0 1-.973.973.973.973 0 0 1-.973-.973.973.973 0 0 1 .973-.973.973.973 0 0 1 .973.973zm-1.672-3.46a.733.733 0 0 0-.733.733.733.733 0 0 0 .082.336 2.75 2.75 0 0 0-.536.393.733.733 0 0 0-.526-.222.733.733 0 0 0-.732.733.733.733 0 0 0 .511.698 2.75 2.75 0 0 0-.115.766.733.733 0 0 0-.013 0 .733.733 0 0 0-.733.732.733.733 0 0 0 .733.733.733.733 0 0 0 .366-.099 2.75 2.75 0 0 0 .423.572.733.733 0 0 0-.226.53.733.733 0 0 0 .733.732.733.733 0 0 0 .705-.537 2.75 2.75 0 0 0 .681.105.733.733 0 0 0 .732.703.733.733 0 0 0 .733-.733.733.733 0 0 0-.068-.306 2.75 2.75 0 0 0 .604-.444.733.733 0 0 0 .5.198.733.733 0 0 0 .733-.733.733.733 0 0 0-.508-.697 2.75 2.75 0 0 0 .099-.655.733.733 0 0 0 .713-.732.733.733 0 0 0-.733-.733.733.733 0 0 0-.314.072 2.75 2.75 0 0 0-.454-.614.733.733 0 0 0 .183-.483A.733.733 0 0 0 5.1 3.1a.733.733 0 0 0-.692.493 2.75 2.75 0 0 0-.683-.097.733.733 0 0 0-.732-.712z" fill="none" stroke="red" stroke-width=".397" stroke-linecap="round" stroke-linejoin="round"/></svg>