<svg xmlns="http://www.w3.org/2000/svg" viewBox="0 0 11.925207 14.516874" height="54.867" width="45.072"><path d="M4.282 12.762l3.221-2.644m-3.891 1.737l3.221-2.618m-3.891 1.53l3.582-2.878m-4.422-.973c.343-.103-.399-4.23-.256-4.637.26-.737.876-.474 1.076.268.388 1.433 1.034 3.994 1.202 3.93.237-.093-.419-5.463-.073-5.958.347-.494.93-.348 1.075-.036.146.311.547 5.92.748 5.975.534-.029.444-3.594.59-4.467.039-.23.43-.683.685-.152.255.532.82 6.443.82 6.443.883-.474 1.65-1.023 2.648-1.44.674-.275 1.051.129 1.106.404.055.275-1.63 1.579-2.61 3.18-.79 1.438-.573 2.783-1.982 3.4-4.188 1.832-5.346-1.797-6.022-5.101C.723 6.872.11 4.87.209 3.91c.06-.578.326-.546.326-.546.672-.087 1.172 3.67 1.567 3.552z" fill="#ac9d93" stroke="#000" stroke-width=".397" stroke-linecap="round" stroke-linejoin="round"/></svg>