<svg xmlns="http://www.w3.org/2000/svg" viewBox="0 0 12.287648 14.584648" height="55.123" width="46.442"><path d="M11.413 2.464c-1.146 1.259-2.268.957-3.786 1.178m0 0s.468-.982 1.054-1.286c.585-.304 1.28-.38 1.28-.38m-3.829 9.266v-.63m0-3.23v-.63m.814 1.416s-.032-.738-.78-.786c-.408-.027-.869.235-.869.73 0 .417.282.767.901.869.248.04.761.137.77.824.008.673-.499.824-.78.824-.38 0-1.04-.144-1.025-.964m-.387-6.096L4.073.242s1.366 1.214 1.789 1.333C6.285 1.695 8.29.198 8.29.198l-.664 3.444M1.091 8.916l-.893 5.47H12.09l-.893-5.47c-.892-5.47-4.848-5.552-5.052-5.552-.235 0-4.16.081-5.053 5.552z" fill="none" stroke="red" stroke-width=".397" stroke-linecap="round" stroke-linejoin="round"/></svg>