<svg xmlns="http://www.w3.org/2000/svg" viewBox="0 0 15.153896 14.516561" height="54.866" width="57.275"><path d="M.201.201v13.725h10.033V.2zm12.08 0V1.51h-.705v10.737l1.049 2.071 1.026-2.07V1.51h-.706V.2z" fill="#abc837" stroke-width=".288" stroke-linecap="round" stroke-linejoin="round"/><path d="M13.812 2.184h1.143V5.12m-3.38 7.128l1.05 2.071 1.026-2.07M11.576 1.51h2.075v10.737h-2.075zM12.243.2h.664v1.307h-.664V.201m-6.566 12.3h3.078M1.633 5.832h3.452m-3.452-1.41h7.066m-7.066-1.25h6.583m-6.583-1.41h3.778M.2.201h10.151l-.118 13.724H.201V.2" fill="none" stroke="#000" stroke-width=".397" stroke-linecap="round" stroke-linejoin="round"/></svg>