<svg xmlns="http://www.w3.org/2000/svg" width="49.728" height="49.728" viewBox="0 0 13.157324 13.157317"><path d="M4.707 7.73s.526-.699.484-1.21c-.041-.512-.36-.961-.36-.961M3.3 6.628s1.19-1.465 2.601-1.315c1.41.15 3.6 2.533 3.6 2.533V5.642S7.64 7.819 6.024 7.982c-1.616.165-2.725-1.354-2.725-1.354zM4.7 8.55l-3.22 4.444m-.685-1.068l5.798-2.532m4.444-2.815a4.458 4.458 0 1 1-8.915 0 4.458 4.458 0 0 1 8.915 0zm1.857 0a6.314 6.314 0 1 1-12.628 0 6.314 6.314 0 0 1 12.628 0z" fill="none" stroke="#fff100" stroke-width=".529" stroke-linejoin="round"/></svg>