<svg xmlns="http://www.w3.org/2000/svg" viewBox="0 0 9.2372744 13.285406" height="50.213" width="34.913"><path d="M.268 12.147l8.697.019v.85l-8.697.005v-.874M.276.269l8.697.019v.85l-8.697.005V.268m3.276 11.666c0-.062.997-2.019.997-2.019l1.058 2.019M4.566 8.327v.616m0-2.203v.665M1.91 4.564l5.604-.574m-6.42 8.14c.073-2.424 1.327-5.44 3.421-5.44 2.43 0 3.434 3.105 3.52 5.465l-6.94-.025m0-10.977c.072 2.424 1.326 5.44 3.42 5.44 2.43 0 3.434-3.105 3.52-5.465l-6.94.025" fill="none" stroke="#5d81aa" stroke-width=".529" stroke-linecap="round" stroke-linejoin="round"/></svg>