<svg xmlns="http://www.w3.org/2000/svg" width="45.858" height="48.715" viewBox="0 0 12.133264 12.889215"><path d="M5.31 2.854A2.457 2.457 0 0 1 2.855 5.31 2.457 2.457 0 0 1 .397 2.854 2.457 2.457 0 0 1 2.854.397 2.457 2.457 0 0 1 5.31 2.854zm6.426 7.181a2.457 2.457 0 0 1-2.457 2.457 2.457 2.457 0 0 1-2.456-2.457A2.457 2.457 0 0 1 9.279 7.58a2.457 2.457 0 0 1 2.457 2.456zm-9.827 2.08l8.315-10.773" clip-rule="evenodd" fill="none" fill-rule="evenodd" stroke="#fe0000" stroke-width=".794" stroke-linecap="round" stroke-linejoin="round" image-rendering="optimizeQuality" shape-rendering="geometricPrecision" text-rendering="geometricPrecision"/></svg>