<svg xmlns="http://www.w3.org/2000/svg" viewBox="0 0 15.673417 13.227507" height="49.994" width="59.238"><path d="M.265 6.4l1.875.033c.156-.686.534-1.28 1.215-1.784L2.292 3.567l2.657.038s.805-.708 2.952-.655c2.352.13 5.36 1.034 5.597 3.665-.136 2.296-1.216 3.257-2.429 3.905v2.443h-1.66v-1.841a20.106 20.106 0 0 1-3.264 0l-.007 1.84H4.563l.007-2.125s-1.86-.247-3.094-1.613C.242 7.857.265 6.4.265 6.4zm10.303-2.975S10.548.284 7.512.265C4.475.284 4.494 3.548 4.494 3.548m9.823 1.402c-1.303.033-.846-1.594.309-1.288.68.18 1.118 1.33.456 2.067-.662.736-1.61.738-1.61.738m-9.434-.12a.168.168 0 1 1-.336-.001.168.168 0 0 1 .336 0z" fill="none" stroke="#5e81aa" stroke-width=".529" stroke-linecap="round" stroke-linejoin="round" paint-order="stroke fill markers"/></svg>