<svg xmlns="http://www.w3.org/2000/svg" width="52.959" height="50.957" viewBox="0 0 14.012127 13.482456"><path d="M12.75 11.71a.566.566 0 1 1-1.132.001.566.566 0 0 1 1.132 0zm-10.272 0a.566.566 0 1 1-1.132.001.566.566 0 0 1 1.132 0m-.776-1.378h10.692c.75 0 1.354.604 1.354 1.355v.176a1.35 1.35 0 0 1-1.354 1.354H1.702a1.35 1.35 0 0 1-1.354-1.354v-.176c0-.75.604-1.355 1.354-1.355zm10.964-1.51a.566.566 0 1 1-1.132 0 .566.566 0 0 1 1.132 0zm-10.272 0a.566.566 0 1 1-1.132 0 .566.566 0 0 1 1.132 0m-.776-1.378H12.31c.75 0 1.353.604 1.353 1.354v.176c0 .75-.604 1.355-1.353 1.355H1.618c-.75 0-1.353-.605-1.353-1.355V8.8c0-.75.603-1.354 1.353-1.354zm8.463-5.83l.259 2.414c1.482.246 1.17 1.431 1.17 3.242M9.015 1.615l-.306 2.414C7.227 4.275 7.54 5.46 7.54 7.27M8.46.264h2.131v1.317H8.46zm-3.5 1.351l.258 2.414c1.482.246 1.17 1.431 1.17 3.242M3.895 1.615L3.59 4.029c-1.482.246-1.17 1.431-1.17 3.242M3.34.265h2.13v1.317H3.34z" fill="none" stroke="#fff100" stroke-width=".529" stroke-linecap="square" paint-order="stroke fill markers"/></svg>