<svg xmlns="http://www.w3.org/2000/svg" width="52" height="50.564" viewBox="0 0 13.75833 13.378297"><path d="M6.062 12.025s-.863-.526-.961-1.684c-.099-1.157 0-1.693 0-1.693.616.07.4.968 1.135 1.168-.255-.942-.44-1.14.252-2.069.978.815 1.342.724.971 2.144.463-.746.295-1.182.896-1.458 0 0 .47 1.33.35 1.801-.121.472-.896 1.785-.896 1.785zm-.735 0h2.897c.205 0 .37.161.37.363v.282a.366.366 0 0 1-.37.363H5.327a.366.366 0 0 1-.37-.363v-.282c0-.202.165-.363.37-.363zm6.011-4.927v5.92m1.31-7.459v7.505M2.42 7.098v5.89M1.11 5.559l.046 7.497m-.021-5.943h11.489m-9.507-1.68l1.1-2.974 5.378.042 1.04 2.909M6.01.265h1.738v2.113H6.01zM0 13.114h13.758M.513 5.502h12.732" fill="none" stroke="#fff100" stroke-width=".529"/></svg>