<svg xmlns="http://www.w3.org/2000/svg" width="12" height="22" viewBox="0 0 30 56" shape-rendering="geometricPrecision" text-rendering="geometricPrecision" image-rendering="optimizeQuality" fill-rule="evenodd" clip-rule="evenodd"><defs><style>.fil0{fill:#fff}</style></defs><g id="Слой_x0020_1"><script id="script3301"/><script id="script3299"/><path id="path3176" class="fil0" d="M6 55V28H1c-1 0-1 0-1-1v-8c0-1 1-1 1-1h5v-5c0-2 0-6 2-9 2-2 5-4 10-4 8 0 11 1 11 1 1 0 1 1 1 1l-2 9s0 1-1 0h-4c-2 0-4 0-4 2v5h9s1 0 1 1l-1 8c0 1 0 1-1 1h-8v27c0 1 0 1-1 1H7c-1 0-1 0-1-1zm11-1V27c0-1 1-1 1-1h8l1-6h-9l-1-1v-6c0-2 1-3 2-4h8l1-6h-1c-1 0-4-1-9-1-4 0-6 2-8 4s-2 5-2 7v6s0 1-1 1H2v6h5c1 0 1 0 1 1v27h9z"/></g></svg>