<svg xmlns="http://www.w3.org/2000/svg" width="13" height="21" viewBox="0 0 30 50" shape-rendering="geometricPrecision" text-rendering="geometricPrecision" image-rendering="optimizeQuality" fill-rule="evenodd" clip-rule="evenodd"><defs><style>.fil0{fill:#fff}</style></defs><g id="Слой_x0020_1"><script id="script3301"/><script id="script3299"/><g id="_860356880"><path id="path3318" class="fil0" d="M4 49H3c-1-2-1-4 0-6 2-2 5-4 7-7l1-1h-1c-2 0-4-1-6-2-1-1-3-2-3-3-1-1-1-2 0-4 0-2 3-3 6-1 3 3 8 3 8 3s5 0 8-3c3-2 6-1 6 1 1 2 1 3 0 4 0 1-2 2-3 3-2 1-4 2-6 2h-1l1 1 7 7c1 2 1 4 0 6-2 1-4 1-6 0l-5-5-1-2-6 7c-1 1-2 1-3 1s-2 0-2-1zm3-2l7-7h2c2 3 5 6 7 7 0 1 1 1 2 0s1-2 0-2l-7-8-1-2c-1 0-1-1 0-1 2 0 6-1 8-3 1-1 2-1 3-2v-2c-1-1-2-2-4 0-3 3-9 3-9 3s-6 0-9-3c-2-2-3-1-4 0v2c1 1 2 1 3 2 2 2 6 3 8 3 1 0 1 1 0 1l-1 2c-3 3-6 6-7 8-1 0-1 1 0 2 0 1 1 1 1 1 1 0 1 0 1-1z"/><path id="path3320" class="fil0" d="M2 13C2 6 8 0 15 0s13 6 13 13-6 13-13 13S2 20 2 13zm24 0c0-6-5-11-11-11S4 7 4 13s5 11 11 11 11-5 11-11zM8 13c0-4 3-7 7-7s7 3 7 7-3 7-7 7-7-3-7-7zm12 0c0-3-2-5-5-5s-5 2-5 5 2 5 5 5 5-2 5-5z"/></g></g></svg>