<svg xmlns="http://www.w3.org/2000/svg" width="21" height="17" viewBox="0 0 30 24" shape-rendering="geometricPrecision" text-rendering="geometricPrecision" image-rendering="optimizeQuality" fill-rule="evenodd" clip-rule="evenodd"><defs><style>.fil0{fill:#fff}</style></defs><g id="Слой_x0020_1"><script id="script3301"/><script id="script3299"/><path id="path3127" class="fil0" d="M0 21s0-1 1-1h1c2 0 4 0 5-1h1-1c-2-1-3-2-4-4 0-1 0-1 1-1H3c-1-2-2-3-2-5 0-1 1-1 1-1 0-1-1-2-1-3 0-2 1-3 1-4h1c3 3 6 5 10 6h1V6c0-3 3-6 6-6 2 0 3 0 4 1l1 1h1c1-1 1-1 2-1 1-1 1 0 1 0 0 1 0 2-1 2v1h2l-2 2-1 1c0 8-6 17-17 17-4 0-7-1-10-3zM26 7V6c1-1 1-1 2-1h-2s-1-1 0-1c0-1 1-1 1-1V2c-1 1-1 1-2 1h-1c-1-1-2-2-4-2s-5 3-5 5v2C10 8 6 6 3 3 2 4 2 4 2 5s1 3 3 4c0 0 0 1-1 1H2c1 2 2 3 5 4v1H5v1c1 1 3 2 4 2s1 1 1 1c-2 1-4 2-6 2H3l1 1c2 0 4 1 6 1 10 0 16-9 16-16z"/></g></svg>