<svg xmlns="http://www.w3.org/2000/svg" width="22" height="15" viewBox="0 0 30 20" shape-rendering="geometricPrecision" text-rendering="geometricPrecision" image-rendering="optimizeQuality" fill-rule="evenodd" clip-rule="evenodd"><defs><style>.fil0{fill:#fff}</style></defs><g id="Слой_x0020_1"><script id="script3301"/><script id="script3299"/><path id="path3398" class="fil0" d="M22 19l-3-3-1 2v1s0 1-1 1h-3C8 20 4 13 1 4 0 3 0 2 1 2c0-1 1-1 1-1h5v1c1 3 2 5 4 7 0 1 0 1 1 0V4c0-1-1-1-2-1V2c0-1 2-2 4-2h1c2 0 3 1 3 2v7h1c2-2 3-5 4-6V2l1-1h6v2c0 3-3 6-4 8-1 0-1 1 0 1l4 5v2c-1 1-1 1-2 1h-6v-1zm1 0h6v-1l-4-5c-1-1-1-2 0-3 1-2 3-5 4-7V2h-5v2c-1 1-2 3-3 5h-1v1c-1 1-3 1-3 0V2s-1-1-2-1h-1c-1 0-2 0-2 1 0 0 1 1 1 2v5c0 2-2 2-3 1-2-2-3-4-4-7V2H2v3c4 8 8 14 12 14h2c1 0 1-1 1-1l1-3c0-1 1-1 1-1l1 1 3 3v1z"/></g></svg>